<svg width="792" height="302" viewBox="0 0 792 302" fill="none" xmlns="http://www.w3.org/2000/svg">
<path d="M57.2254 301.006H0C0 301.006 5.72254 283.838 14.3064 283.838C22.8902 283.838 28.6127 295.283 28.6127 295.283C28.6127 295.283 34.3353 283.838 42.9191 283.838C51.5029 283.838 57.2254 301.006 57.2254 301.006Z" fill="#C4C4C4"/>
<path d="M646.647 244.925H589.422C589.422 244.925 595.144 227.757 603.728 227.757C612.312 227.757 618.035 239.202 618.035 239.202C618.035 239.202 623.757 227.757 632.341 227.757C640.925 227.757 646.647 244.925 646.647 244.925Z" fill="#C4C4C4"/>
<path d="M200.289 209.445H108.728C108.728 209.445 117.884 181.977 131.618 181.977C145.353 181.977 154.509 200.289 154.509 200.289C154.509 200.289 163.665 181.977 177.399 181.977C191.133 181.977 200.289 209.445 200.289 209.445Z" fill="#DDDDDD"/>
<path d="M792 111.018H700.439C700.439 111.018 709.596 83.5493 723.33 83.5493C737.064 83.5493 746.22 101.861 746.22 101.861C746.22 101.861 755.376 83.5493 769.11 83.5493C782.844 83.5493 792 111.018 792 111.018Z" fill="#DDDDDD"/>
<path d="M214.058 56.5603H44.3772C34.3354 56.5603 61.3453 11.3121 78.3134 11.3121C95.2815 11.3121 100.938 28.2802 100.938 28.2802C100.938 28.2802 112.25 0 129.218 0C146.186 0 157.498 33.9362 157.498 33.9362C157.498 33.9362 168.81 22.6241 185.778 22.6241C202.746 22.6241 224.324 56.5603 214.058 56.5603Z" fill="#DCDCDC"/>
</svg>
