<svg width="511" height="385" viewBox="0 0 511 385" fill="none" xmlns="http://www.w3.org/2000/svg">
<path d="M107.233 209.255L114.513 231.891L127.812 234.743C129.132 232.62 131.405 229.911 132.768 228.286L126.491 202.624L107.233 209.255Z" fill="#686868" fill-opacity="0.2"/>
<path d="M216.19 244.857C210.397 228.013 195.956 215.613 178.431 212.433C160.905 209.253 143.028 215.79 131.687 229.525C130.947 230.398 130.274 231.281 129.611 232.193C129.064 232.967 128.32 233.949 127.812 234.743C100.043 227.134 88.72 233.029 75.3308 247.5C61.9415 261.972 58.4741 283.033 66.5186 301.033C74.5631 319.032 92.568 330.498 112.28 330.175C122.771 354.111 150.134 365.682 174.615 356.534C199.095 347.386 212.166 320.708 204.389 295.757C217.755 282.455 222.338 262.683 216.19 244.857Z" fill="#686868" fill-opacity="0.2"/>
<path d="M381.226 207.408L386.617 229.161L399.085 231.835C400.322 229.844 402.453 227.305 403.731 225.782L398.498 210L381.226 207.408Z" fill="#686868" fill-opacity="0.2"/>
<path d="M481.939 241.317C476.508 225.526 462.97 213.9 446.54 210.919C430.109 207.938 413.35 214.066 402.718 226.943C402.023 227.762 401.393 228.589 400.772 229.444C400.259 230.17 399.561 231.091 399.085 231.835C373.051 224.702 362.436 230.228 349.884 243.795C337.331 257.362 334.081 277.107 341.622 293.981C349.164 310.856 366.044 321.605 384.524 321.302C394.359 343.742 420.011 354.59 442.962 346.014C465.913 337.438 478.166 312.427 470.876 289.036C483.406 276.565 487.703 258.029 481.939 241.317Z" fill="#686868" fill-opacity="0.2"/>
<path d="M309.751 225.694L315.724 224.936L296.998 212.5L299.498 218.5L309.751 225.694Z" fill="#333333" fill-opacity="0.2"/>
<path d="M276.498 201.5L291.281 233.13C291.281 233.13 293.029 231.736 297.223 229.822C301.416 227.908 303.373 227.493 303.373 227.493L291.998 201L276.498 201.5Z" fill="#333333" fill-opacity="0.2"/>
<circle r="50" transform="matrix(0.913545 -0.406737 -0.406737 -0.913545 318.567 274.977)" fill="#333333" fill-opacity="0.2"/>
<path d="M106.37 113.524L99.4551 114.609C97.6426 114.893 96.3834 116.565 96.6117 118.385L107.583 209.493L127.704 206.334L110.23 116.248C109.89 114.446 108.181 113.241 106.37 113.524Z" fill="#7F5B53"/>
<path d="M190.095 100.33C193.15 119.738 185.48 139.282 170.042 151.433C154.603 163.584 133.804 166.446 115.657 158.917C114.484 158.448 113.373 157.936 112.256 157.389C111.323 156.917 110.385 156.412 109.48 155.901C94.8039 171.948 71.9711 177.694 51.4476 170.506C30.924 163.317 16.6666 144.581 15.2104 122.884C13.7543 101.187 25.3801 80.7127 44.7588 70.8465C42.6201 42.0996 63.3119 16.6899 91.8959 12.9612C120.48 9.23261 146.997 28.4834 152.305 56.8168C172.202 62.8778 186.881 79.7806 190.095 100.33Z" fill="#F1B49E"/>
<path d="M126.885 114.65C127.613 135.049 117.338 153.431 112.256 157.39C111.323 156.918 110.384 156.412 109.479 155.901C117.746 144.054 121.516 129.646 120.11 115.267C119.978 113.404 121.35 111.773 123.208 111.586C124.106 111.484 125.007 111.754 125.701 112.333C126.396 112.911 126.823 113.749 126.885 114.65Z" fill="#E89C85"/>
<path d="M399.523 128.942L405.4 129.867C406.94 130.108 408.01 131.53 407.815 133.077L398.457 210.51L381.356 207.818L396.241 131.255C396.531 129.724 397.984 128.7 399.523 128.942Z" fill="#7F5B53"/>
<path d="M328.366 117.697C325.763 134.192 332.274 150.806 345.392 161.139C358.509 171.473 376.186 173.913 391.613 167.52C392.61 167.122 393.555 166.687 394.504 166.223C395.297 165.822 396.095 165.393 396.865 164.959C409.333 178.603 428.737 183.495 446.184 177.393C463.63 171.291 475.755 155.371 477.001 136.93C478.246 118.489 468.372 101.083 451.905 92.6902C453.733 68.2576 436.155 46.6532 411.862 43.4737C387.568 40.2941 365.023 56.6467 360.501 80.7267C343.588 85.8711 331.105 100.232 328.366 117.697Z" fill="#F1B49E"/>
<path d="M382.086 129.892C381.459 147.23 390.186 162.856 394.504 166.223C395.297 165.822 396.095 165.393 396.865 164.959C389.843 154.886 386.644 142.639 387.844 130.419C387.957 128.835 386.791 127.448 385.212 127.288C384.449 127.202 383.683 127.431 383.093 127.922C382.502 128.414 382.139 129.125 382.086 129.892Z" fill="#E89C85"/>
<rect x="305.726" y="116.455" width="4" height="40" transform="rotate(29.6035 305.726 116.455)" fill="#7F5B53"/>
<path d="M285.825 106.421L280.544 106.476C279.159 106.49 278.04 107.959 278.016 109.793L276.491 201.533L291.86 201.373L288.419 109.684C288.357 107.852 287.209 106.408 285.825 106.421Z" fill="#7F5B53"/>
<circle cx="283.189" cy="76.6881" r="50" transform="rotate(-0.597379 283.189 76.6881)" fill="#F1B49E"/>
</svg>
