<svg width="490" height="374" viewBox="0 0 490 374" fill="none" xmlns="http://www.w3.org/2000/svg">
<path d="M108.275 204.956L105.685 228.592L116.663 236.622C118.735 235.222 121.915 233.677 123.822 232.749L128.562 206.759L108.275 204.956Z" fill="#686868" fill-opacity="0.2"/>
<path d="M193.224 281.914C194.808 264.172 186.683 246.959 171.98 236.906C157.276 226.852 138.288 225.526 122.33 233.439C121.298 233.935 120.324 234.466 119.347 235.028C118.531 235.512 117.451 236.105 116.663 236.622C94.4152 218.346 81.6723 219.108 63.5439 226.857C45.4155 234.607 33.6567 252.421 33.6576 272.136C33.6585 291.851 45.4187 309.665 63.5476 317.413C63.3593 343.546 83.6202 365.274 109.703 366.911C135.786 368.547 158.604 349.523 161.684 323.57C179.313 316.879 191.565 300.697 193.224 281.914Z" fill="#686868" fill-opacity="0.2"/>
<path d="M106.37 113.524L99.4551 114.609C97.6426 114.893 96.3834 116.565 96.6117 118.385L107.583 209.493L127.704 206.334L110.23 116.248C109.89 114.446 108.181 113.241 106.37 113.524Z" fill="#7F5B53"/>
<path d="M190.095 100.33C193.15 119.738 185.48 139.282 170.042 151.433C154.603 163.584 133.804 166.446 115.657 158.917C114.484 158.448 113.373 157.936 112.256 157.389C111.323 156.917 110.385 156.412 109.48 155.901C94.8039 171.948 71.9711 177.694 51.4476 170.506C30.924 163.317 16.6666 144.581 15.2104 122.884C13.7543 101.187 25.3801 80.7127 44.7588 70.8465C42.6201 42.0996 63.3119 16.6899 91.8959 12.9612C120.48 9.23261 146.997 28.4834 152.305 56.8168C172.202 62.8778 186.881 79.7806 190.095 100.33Z" fill="#9FC47B"/>
<path d="M126.885 114.65C127.613 135.049 117.338 153.431 112.256 157.39C111.323 156.918 110.384 156.412 109.479 155.901C117.746 144.054 121.516 129.646 120.11 115.267C119.978 113.404 121.35 111.773 123.208 111.586C124.106 111.484 125.007 111.754 125.701 112.333C126.396 112.911 126.823 113.749 126.885 114.65Z" fill="#8AA86D"/>
<path d="M380.988 207.622L375.556 229.365L385.317 237.569C387.343 236.391 390.415 235.146 392.258 234.4L398.335 210.389L380.988 207.622Z" fill="#686868" fill-opacity="0.2"/>
<path d="M454.066 284.774C456.67 268.279 450.158 251.665 437.04 241.332C423.923 230.998 406.246 228.558 390.819 234.951C389.822 235.349 388.877 235.784 387.928 236.248C387.135 236.649 386.087 237.135 385.317 237.569C365.662 219.068 353.695 218.975 336.248 225.078C318.802 231.18 306.677 247.1 305.431 265.541C304.186 283.982 314.06 301.388 330.527 309.78C328.699 334.213 346.277 355.818 370.57 358.997C394.864 362.177 417.41 345.824 421.931 321.744C438.844 316.6 451.327 302.238 454.066 284.774Z" fill="#686868" fill-opacity="0.2"/>
<path d="M399.523 128.942L405.4 129.867C406.94 130.108 408.01 131.53 407.815 133.077L398.457 210.51L381.356 207.818L396.241 131.255C396.531 129.724 397.983 128.7 399.523 128.942Z" fill="#7F5B53"/>
<path d="M328.365 117.697C325.762 134.192 332.274 150.806 345.391 161.139C358.509 171.473 376.186 173.913 391.613 167.52C392.61 167.122 393.554 166.687 394.504 166.223C395.297 165.822 396.095 165.393 396.864 164.959C409.332 178.603 428.737 183.495 446.183 177.393C463.63 171.291 475.755 155.371 477 136.93C478.246 118.489 468.372 101.083 451.905 92.6902C453.733 68.2576 436.155 46.6532 411.861 43.4737C387.568 40.2941 365.022 56.6467 360.501 80.7267C343.587 85.8711 331.105 100.232 328.365 117.697Z" fill="#9FC47B"/>
<path d="M382.085 129.892C381.459 147.23 390.186 162.856 394.504 166.223C395.297 165.822 396.095 165.393 396.865 164.959C389.842 154.886 386.644 142.639 387.844 130.419C387.957 128.835 386.791 127.448 385.212 127.288C384.449 127.202 383.683 127.431 383.092 127.922C382.502 128.414 382.138 129.125 382.085 129.892Z" fill="#8AA86D"/>
<path d="M291.826 237.374L297.362 239.743L288.094 219.726L287.149 225.735L291.826 237.374Z" fill="#333333" fill-opacity="0.2"/>
<path d="M276.216 197.216L272.133 234.44C272.133 234.44 274.346 234.122 278.932 234.594C283.518 235.066 285.415 235.697 285.415 235.697L291.49 198.93L276.216 197.216Z" fill="#333333" fill-opacity="0.2"/>
<circle r="50" transform="matrix(0.993763 0.111514 0.111514 -0.993763 274.49 284.341)" fill="#333333" fill-opacity="0.2"/>
<rect x="305.727" y="116.455" width="4" height="40" transform="rotate(29.6035 305.727 116.455)" fill="#7F5B53"/>
<path d="M285.826 106.421L280.544 106.476C279.159 106.49 278.04 107.959 278.017 109.793L276.491 201.533L291.86 201.373L288.419 109.684C288.357 107.852 287.209 106.408 285.826 106.421Z" fill="#7F5B53"/>
<circle cx="283.189" cy="76.6881" r="50" transform="rotate(-0.597379 283.189 76.6881)" fill="#9FC47B"/>
</svg>
