<svg width="518" height="396" viewBox="0 0 518 396" fill="none" xmlns="http://www.w3.org/2000/svg">
<path d="M107.498 209.5L121.998 243.5C121.998 243.5 126.498 243.5 135.498 246.5C136.998 243.5 138.998 241.5 140.998 239L127.498 206L107.498 209.5Z" fill="#686868" fill-opacity="0.2"/>
<path d="M223.789 256.338C217.997 239.494 203.556 227.093 186.03 223.913C168.504 220.733 150.628 227.27 139.287 241.005C138.546 241.879 137.874 242.761 137.211 243.673C136.664 244.447 135.92 245.43 135.412 246.223C107.643 238.615 96.3196 244.509 82.9304 258.981C69.5411 273.452 66.0738 294.514 74.1182 312.513C82.1627 330.512 100.168 341.978 119.88 341.655C130.371 365.591 157.733 377.162 182.214 368.015C206.695 358.867 219.765 332.188 211.989 307.238C225.355 293.936 229.938 274.164 223.789 256.338Z" fill="#686868" fill-opacity="0.2"/>
<path d="M381.498 207.5L395.998 241C400.498 241.5 406.998 243.5 406.998 243.5C406.498 243 409.498 239.5 410.998 237.5L398.498 210.5L381.498 207.5Z" fill="#686868" fill-opacity="0.2"/>
<path d="M489.538 252.798C484.108 237.006 470.57 225.381 454.139 222.4C437.709 219.419 420.95 225.547 410.318 238.424C409.623 239.243 408.993 240.07 408.371 240.925C407.859 241.65 407.161 242.572 406.684 243.315C380.651 236.182 370.036 241.709 357.483 255.276C344.931 268.842 341.68 288.588 349.222 305.462C356.764 322.336 373.643 333.086 392.123 332.783C401.958 355.223 427.611 366.071 450.562 357.495C473.513 348.919 485.766 323.908 478.476 300.516C491.006 288.046 495.303 269.509 489.538 252.798Z" fill="#686868" fill-opacity="0.2"/>
<path d="M318.998 237C321.498 236.5 319.498 237 322.998 236.5C322.998 236.5 324.498 236.5 325.998 236.5L299.498 218L301.498 222.5L318.998 237Z" fill="#333333" fill-opacity="0.2"/>
<path d="M276.498 201.5L296.998 246C296.998 246 298.498 244.5 302.498 242.5C303.998 241.5 308.998 239.5 308.998 239.5L291.998 201L276.498 201.5Z" fill="#333333" fill-opacity="0.2"/>
<circle r="50" transform="matrix(0.913545 -0.406737 -0.406737 -0.913545 326.166 286.46)" fill="#333333" fill-opacity="0.2"/>
<path d="M106.37 113.524L99.4551 114.609C97.6426 114.893 96.3834 116.565 96.6117 118.385L107.583 209.493L127.704 206.334L110.23 116.248C109.89 114.446 108.181 113.241 106.37 113.524Z" fill="#7F5B53"/>
<path d="M190.095 100.33C193.15 119.738 185.48 139.282 170.042 151.433C154.603 163.584 133.804 166.446 115.657 158.917C114.484 158.448 113.373 157.936 112.256 157.389C111.323 156.917 110.385 156.412 109.48 155.901C94.8039 171.948 71.9711 177.694 51.4476 170.506C30.924 163.317 16.6666 144.581 15.2104 122.884C13.7543 101.187 25.3801 80.7127 44.7588 70.8465C42.6201 42.0996 63.3119 16.6899 91.8959 12.9612C120.48 9.23261 146.997 28.4834 152.305 56.8168C172.202 62.8778 186.881 79.7806 190.095 100.33Z" fill="#B3CBD7"/>
<path d="M126.885 114.65C127.613 135.049 117.338 153.431 112.256 157.39C111.323 156.918 110.384 156.412 109.48 155.901C117.746 144.054 121.516 129.646 120.11 115.267C119.978 113.404 121.35 111.773 123.208 111.586C124.106 111.484 125.007 111.754 125.701 112.333C126.396 112.911 126.823 113.749 126.885 114.65Z" fill="#90ABB9"/>
<path d="M399.523 128.942L405.4 129.867C406.94 130.108 408.01 131.53 407.815 133.077L398.457 210.51L381.356 207.818L396.241 131.255C396.531 129.724 397.983 128.7 399.523 128.942Z" fill="#7F5B53"/>
<path d="M328.365 117.697C325.762 134.192 332.274 150.806 345.391 161.139C358.509 171.473 376.186 173.913 391.613 167.52C392.61 167.122 393.555 166.687 394.504 166.223C395.297 165.822 396.095 165.393 396.864 164.959C409.332 178.603 428.737 183.495 446.184 177.393C463.63 171.291 475.755 155.371 477.001 136.93C478.246 118.489 468.372 101.083 451.905 92.6902C453.733 68.2576 436.155 46.6532 411.862 43.4737C387.568 40.2941 365.022 56.6467 360.501 80.7267C343.588 85.8711 331.105 100.232 328.365 117.697Z" fill="#B3CBD7"/>
<path d="M382.086 129.892C381.459 147.23 390.186 162.856 394.504 166.223C395.297 165.822 396.095 165.393 396.865 164.959C389.842 154.886 386.644 142.639 387.844 130.419C387.957 128.835 386.791 127.448 385.212 127.288C384.449 127.202 383.683 127.431 383.093 127.922C382.502 128.414 382.139 129.125 382.086 129.892Z" fill="#90ABB9"/>
<rect x="305.726" y="116.455" width="4" height="40" transform="rotate(29.6035 305.726 116.455)" fill="#7F5B53"/>
<path d="M285.825 106.421L280.544 106.476C279.159 106.49 278.04 107.959 278.016 109.793L276.491 201.533L291.86 201.373L288.419 109.684C288.357 107.852 287.209 106.408 285.825 106.421Z" fill="#7F5B53"/>
<circle cx="283.189" cy="76.6881" r="50" transform="rotate(-0.597379 283.189 76.6881)" fill="#B3CBD7"/>
</svg>
